<svg xmlns="http://www.w3.org/2000/svg" viewBox="0 0 606.81 602.42"><defs><style>.cls-1{fill:#fff;}</style></defs><title>globe_white_block</title><g id="Calque_2" data-name="Calque 2"><g id="svg2"><g id="g10"><path class="cls-1" d="M583.77,280.84c15.63-17.5,24-33.89,23-46.86-2.81-34.86-38.71-50-50.33-54.07h0A282.8,282.8,0,0,0,429.53,51.4C426.43,32.35,413,2.19,378.88.07c-14.29-.92-31.19,7.19-49.1,22.72q-12.9-1.2-26.13-1.21A279.27,279.27,0,0,0,154.07,64.8C133.58,60,116.52,60,105,65.4c-31,14.42-31.74,50.29-27.29,70.3a279.45,279.45,0,0,0-55,166.85q0,10.83.81,21.47c-9.66,9.41-24.62,30.4-23.42,51.82.77,13.57,8,25,20.85,32.94A133.42,133.42,0,0,0,49.3,421.87a282.74,282.74,0,0,0,127,131c3.33,15.59,16.24,38.48,37.68,46.56a45.56,45.56,0,0,0,16.17,2.95c12.28,0,27.65-4.81,45.35-20.33q13.92,1.38,28.2,1.4a279.35,279.35,0,0,0,154-46.06,129.88,129.88,0,0,0,16.82,1.09c21,0,51.72-5.28,57.59-35.25q3.27-16.75,0-37.27A279.35,279.35,0,0,0,584.6,302.55Q584.6,291.6,583.77,280.84ZM377.87,16.19c19.31,1.21,28.4,15.16,32.62,26.5a278.09,278.09,0,0,0-58-16.85C362.77,18.88,371.48,15.76,377.87,16.19Zm-42.4,23.46C457.52,54.33,554.29,152.37,567,275c-13.47,14-33,30-59.16,46.15a43.7,43.7,0,0,0-58.5-16c-15.43-20.73-33-42.72-52.4-65.46-29.28-34.34-60-64.9-91.53-90.88A43.1,43.1,0,0,0,307,137.34a43.89,43.89,0,0,0-20-36.7C304.06,73.61,320.71,53.47,335.47,39.65Zm162.37,303.9A27.42,27.42,0,0,1,482.92,368c-11.67,6-27.36,2.29-35.06-8.54a27.54,27.54,0,1,1,50-15.93Zm-68,16.56A666.27,666.27,0,0,1,316.7,394c-35.14,7.33-67.83,13-97.28,16.83a43.32,43.32,0,0,0-29.07-28.05c5.38-44,15.78-90.17,30.92-137.42,7.52-23.44,16-46.16,25.39-67.64a43.19,43.19,0,0,0,16.6,3.29,43.68,43.68,0,0,0,34.81-17.26c29.74,24.85,58.83,53.9,86.59,86.46,19.34,22.69,36.87,44.6,52.19,65.22a43.79,43.79,0,0,0-7,44.66ZM235.75,137.34a27.6,27.6,0,0,1,8.92-20.29,27.56,27.56,0,0,1,28.05-5.59,27.63,27.63,0,0,1,18.09,25.88,27.53,27.53,0,0,1-55.06,0Zm67.9-99.6q5.27,0,10.49.2c-14,15-28.41,34.11-42.37,56.55a44.65,44.65,0,0,0-33.16,6.81C216.38,88,194.8,77.79,175.27,71A263,263,0,0,1,303.65,37.74ZM111.83,80.05c5.19-2.42,13.11-3.28,23.36-2.23A282.68,282.68,0,0,0,92,118C91.74,104.91,95,87.86,111.83,80.05Zm-82.4,315C21,389.82,16.67,383.25,16.2,375c-.55-9.93,4.38-20.58,9.87-28.74A278.2,278.2,0,0,0,40.5,401,104.68,104.68,0,0,1,29.43,395.06Zm9.41-92.51c0-91.85,47-172.93,118.22-220.43,19.2,5.29,42.93,15.24,69.86,31a43.67,43.67,0,0,0,6,55.63,741.62,741.62,0,0,0-27.06,71.68c-15.49,48.33-26.12,95.63-31.61,140.71A43.74,43.74,0,0,0,135,417.08c-29.39.11-53.9-2.7-74-8.45h0A263.32,263.32,0,0,1,38.84,302.55ZM70.2,427.45c18.51,3.87,39.82,5.77,64.14,5.77h.81a44,44,0,0,0,34.55,34.33c.43,25.21,2.33,47.09,4.24,65.78A266.55,266.55,0,0,1,70.2,427.45Zm80.25-2.75A27.55,27.55,0,0,1,178,397.16c.92,0,1.84.07,2.73.15a27.53,27.53,0,0,1-2.93,54.92A27.71,27.71,0,0,1,150.45,424.7Zm69.19,159.66c-10.47-4-18.07-13.13-22.71-21.92a278.11,278.11,0,0,0,56,16.45C240.89,586.34,229.76,588.2,219.64,584.36Zm84-17a263.22,263.22,0,0,1-112.54-25.12c-2.17-20.42-4.73-45.26-5.25-74.54a43.79,43.79,0,0,0,35.74-40.82c29.83-3.9,62.89-9.62,98.4-17A682.15,682.15,0,0,0,438.89,373.9a43.73,43.73,0,0,0,44.24,11.4C499.72,414.41,510.35,440,514.94,462,466.57,525.93,389.86,567.34,303.65,567.34Zm212.57-67.17c-3.36,17.18-22.22,21.53-37.7,22.11a282.48,282.48,0,0,0,39.05-37.8A77.33,77.33,0,0,1,516.22,500.17Zm10.87-55.67q-8.9-30.13-29.65-66.71A43.44,43.44,0,0,0,514,343.55a43.92,43.92,0,0,0-.54-6.88c21.45-13,40.06-26.8,54.9-40.34.06,2.07.08,4.14.08,6.22A263.15,263.15,0,0,1,527.09,444.5ZM566,202c11,6.38,23.3,17.07,24.61,33.26.42,5.15-2.63,13.11-9.52,22.91A277.84,277.84,0,0,0,566,202Z"/></g></g></g></svg>